<?xml version="1.0" encoding="UTF-8"?>
<svg version="1.1" xmlns="http://www.w3.org/2000/svg" width="254" height="103">
<path d="M0 0 C4.81190997 0.44145963 7.48413495 2.75290318 10.9375 5.875 C12.09179397 6.88635144 13.24811052 7.89539825 14.40625 8.90234375 C15.29570313 9.67747314 15.29570313 9.67747314 16.203125 10.46826172 C19.04068066 12.8871237 21.98599835 15.16024771 24.9375 17.4375 C30.58726126 21.81076609 36.03074577 26.38363951 41.38256836 31.11694336 C44.2076074 33.58890456 46.60478541 35.3023927 50 37 C50 24.79 50 12.58 50 0 C55.28 0 60.56 0 66 0 C66 23.43 66 46.86 66 71 C60.9199412 69.98398824 59.59383792 69.21720922 55.8125 66 C54.84957031 65.1853125 53.88664062 64.370625 52.89453125 63.53125 C49.40196683 60.47702362 45.95884416 57.37250274 42.52734375 54.25 C38.1434212 50.34715705 33.56251156 46.69045256 29 43 C26.07041994 40.58477369 23.14158992 38.16865967 20.21484375 35.75 C18.12837766 33.97935206 18.12837766 33.97935206 16 33 C16 45.54 16 58.08 16 71 C10.72 71 5.44 71 0 71 C-1.39945053 68.20109894 -1.12724525 65.89295935 -1.12939453 62.76196289 C-1.13254669 61.4504274 -1.13569885 60.13889191 -1.13894653 58.78761292 C-1.13715651 57.34929369 -1.1351055 55.91097476 -1.1328125 54.47265625 C-1.1334859 53.00296513 -1.13445624 51.53327411 -1.13571167 50.06358337 C-1.13718738 46.98093609 -1.13503844 43.89831775 -1.13037109 40.81567383 C-1.12467888 36.86334708 -1.12795038 32.91108832 -1.13394356 28.95876408 C-1.13755684 25.92275989 -1.13640696 22.88677181 -1.13381577 19.85076714 C-1.13314836 18.39350819 -1.13396841 16.93624779 -1.13629532 15.47899055 C-1.1388338 13.44180453 -1.13427898 11.40461339 -1.12939453 9.36743164 C-1.12859894 8.20764297 -1.12780334 7.04785431 -1.12698364 5.85292053 C-1 3 -1 3 0 0 Z " fill="#FFFFFF" transform="translate(73,30)"/>
<path d="M0 0 C2.475 2.475 2.475 2.475 5 5 C2.03 8.96 -0.94 12.92 -4 17 C-10 15 -10 15 -12.25 13.875 C-17.85134284 12.09275455 -23.24869704 12.45451219 -28.8125 14.1875 C-34.81544724 17.60094059 -37.91098471 21.4031096 -40 28 C-40.79077957 34.01209122 -40.10079485 39.72057977 -37 45 C-33.37054352 49.00561863 -29.26490251 51.78281757 -23.86328125 52.30078125 C-16.5505474 52.32491569 -10.7731724 51.80269203 -4 49 C-1.03 52.96 1.94 56.92 5 61 C1.54294362 64.45705638 0.30740393 65.58503242 -3.9375 67.1875 C-4.77152344 67.51105469 -5.60554688 67.83460937 -6.46484375 68.16796875 C-17.58763572 71.81843823 -28.28386875 70.2864525 -39 66 C-41.29265198 64.82195748 -42.96391145 63.62887084 -45 62 C-45.825 61.46375 -46.65 60.9275 -47.5 60.375 C-53.63840563 54.54351465 -57.87653569 46.31894013 -58.3359375 37.828125 C-58.36575134 36.30231903 -58.37819936 34.77609386 -58.375 33.25 C-58.37338867 32.45303711 -58.37177734 31.65607422 -58.37011719 30.83496094 C-58.23953209 24.54895262 -57.1534635 19.5076116 -54 14 C-53.4225 12.948125 -52.845 11.89625 -52.25 10.8125 C-40.41411871 -3.98235161 -17.01935348 -10.25864312 0 0 Z " fill="#FFFFFF" transform="translate(58,33)"/>
<path d="M0 0 C0.78584473 0.00088623 1.57168945 0.00177246 2.38134766 0.00268555 C10.85355909 0.17330767 18.62657534 1.94851696 25.3125 7.375 C24.73077275 11.3270518 22.76092259 13.59595053 20.25 16.625 C19.51652344 17.51703125 18.78304687 18.4090625 18.02734375 19.328125 C17.46144531 20.00359375 16.89554688 20.6790625 16.3125 21.375 C15.29542969 20.941875 15.29542969 20.941875 14.2578125 20.5 C7.13099045 17.65716793 0.58587793 15.67185376 -6.94921875 18.10546875 C-12.14215248 20.45716702 -15.33319433 23.46593186 -17.76953125 28.69921875 C-19.663902 34.22110797 -19.61342765 40.77430108 -17.5 46.25 C-14.49669994 51.42810356 -11.40315528 54.55308449 -5.6875 56.375 C-2.30935102 56.72774329 -2.30935102 56.72774329 1.25 56.6875 C2.43464844 56.70425781 3.61929688 56.72101563 4.83984375 56.73828125 C8.62431495 56.34238044 10.95132357 55.07194999 14.3125 53.375 C16.453125 53.37109375 16.453125 53.37109375 18.3125 54.375 C20.234375 56.66015625 20.234375 56.66015625 22.0625 59.4375 C22.67609375 60.35660156 23.2896875 61.27570313 23.921875 62.22265625 C24.61023438 63.28806641 24.61023438 63.28806641 25.3125 64.375 C23.56339653 68.57636411 21.59471275 69.65878449 17.57421875 71.4921875 C6.61673718 75.76920103 -5.78060929 75.8782843 -16.6875 71.375 C-26.1183787 66.21599544 -32.25191214 59.22742172 -35.9296875 49.13671875 C-39.11970434 37.51124501 -37.76848182 26.54402825 -32 16 C-28.96370184 11.29449315 -25.39421598 8.32650315 -20.6875 5.375 C-19.841875 4.7975 -18.99625 4.22 -18.125 3.625 C-12.2248323 0.59927297 -6.52479858 -0.01327599 0 0 Z " fill="#FFFFFF" transform="translate(188.6875,28.625)"/>
<path d="M0 0 C-0.17015625 0.6084375 -0.3403125 1.216875 -0.515625 1.84375 C-1.35837365 4.89198979 -2.1793 7.94574937 -3 11 C-3.33644531 12.21945312 -3.67289063 13.43890625 -4.01953125 14.6953125 C-6.62733591 24.40376879 -8.05920558 33.99786982 -9 44 C-11.47923801 44.02685095 -13.9581884 44.04676547 -16.4375 44.0625 C-17.14455078 44.07087891 -17.85160156 44.07925781 -18.58007812 44.08789062 C-20.38693559 44.09653588 -22.19387603 44.05220011 -24 44 C-24.495 43.505 -24.495 43.505 -25 43 C-24.94599489 33.02255633 -23.31345018 23.68043039 -21 14 C-21.81267334 14.00523682 -22.62534668 14.01047363 -23.46264648 14.01586914 C-27.12092322 14.03656994 -30.77918767 14.04963803 -34.4375 14.0625 C-35.71689453 14.07087891 -36.99628906 14.07925781 -38.31445312 14.08789062 C-40.13686523 14.09272461 -40.13686523 14.09272461 -41.99609375 14.09765625 C-43.12200928 14.10289307 -44.2479248 14.10812988 -45.40795898 14.11352539 C-48 14 -48 14 -49 13 C-49.07258946 10.81360547 -49.08373783 8.62499611 -49.0625 6.4375 C-49.05347656 5.23996094 -49.04445312 4.04242188 -49.03515625 2.80859375 C-49.02355469 1.88175781 -49.01195312 0.95492187 -49 0 C-42.82544314 -0.16788825 -36.65075498 -0.32841916 -30.47583008 -0.48217773 C-28.37584302 -0.53549993 -26.27590571 -0.59082137 -24.17602539 -0.64819336 C-21.1552198 -0.73037757 -18.13430741 -0.80533672 -15.11328125 -0.87890625 C-14.17664139 -0.90594131 -13.24000153 -0.93297638 -12.27497864 -0.96083069 C-8.0366147 -1.05756202 -4.13098379 -1.12250886 0 0 Z " fill="#FFFFFF" transform="translate(254,1)"/>
</svg>
